<svg xmlns="http://www.w3.org/2000/svg" width="24" height="24" fill="none" id="verified">
  <path fill="#000" fill-rule="evenodd" d="M10.452 1.312a2 2 0 0 1 3.095 0l.992 1.211 1.465-.553a2 2 0 0 1 2.68 1.547l.253 1.545 1.545.254a2 2 0 0 1 1.548 2.68l-.553 1.465 1.211.992a2 2 0 0 1 0 3.095l-1.211.991.553 1.465a2 2 0 0 1-1.548 2.68l-1.545.254-.253 1.545a2 2 0 0 1-2.68 1.547l-1.465-.553-.992 1.211a2 2 0 0 1-3.095 0l-.992-1.211-1.464.553a2 2 0 0 1-2.68-1.547l-.254-1.545-1.545-.254a2 2 0 0 1-1.548-2.68l.554-1.465-1.212-.992a2 2 0 0 1 0-3.095l1.212-.991-.554-1.465a2 2 0 0 1 1.548-2.68l1.545-.254.253-1.545a2 2 0 0 1 2.68-1.547l1.465.553.992-1.211Zm2.54 2.478L12 2.579l-.992 1.211a2 2 0 0 1-2.254.604l-1.465-.553-.253 1.545a2 2 0 0 1-1.65 1.65L3.84 7.29l.554 1.465a2 2 0 0 1-.604 2.254L2.578 12l1.212.992a2 2 0 0 1 .604 2.254l-.554 1.465 1.545.253a2 2 0 0 1 1.65 1.65l.254 1.545 1.465-.553a2 2 0 0 1 2.254.604L12 21.421l.991-1.211a2 2 0 0 1 2.255-.604l1.464.553.253-1.545a2 2 0 0 1 1.65-1.65l1.546-.253-.553-1.465a2 2 0 0 1 .604-2.254L21.42 12l-1.211-.992a2 2 0 0 1-.605-2.254l.554-1.465-1.545-.253a2 2 0 0 1-1.65-1.65L16.71 3.84l-1.464.553a2 2 0 0 1-2.255-.604Z" clip-rule="evenodd"></path>
  <path fill="#000" fill-rule="evenodd" d="m18.206 9.207-7 7a1 1 0 0 1-1.414 0l-4-4 1.414-1.414 3.293 3.293 6.293-6.293 1.414 1.414Z" clip-rule="evenodd"></path>
</svg>
