<svg xmlns="http://www.w3.org/2000/svg" width="24" height="24" fill="none" id="verified">
  <path fill="#000" fill-rule="evenodd" d="M10.839 1.628a1.5 1.5 0 0 1 2.321 0l.992 1.212a.5.5 0 0 0 .564.15l1.464-.552a1.5 1.5 0 0 1 2.01 1.16l.254 1.545a.5.5 0 0 0 .412.413l1.545.253a1.5 1.5 0 0 1 1.161 2.01l-.553 1.465a.5.5 0 0 0 .15.564l1.212.991a1.5 1.5 0 0 1 0 2.322l-1.211.992a.5.5 0 0 0-.151.563l.553 1.465a1.5 1.5 0 0 1-1.16 2.01l-1.546.253a.5.5 0 0 0-.412.413l-.253 1.545a1.5 1.5 0 0 1-2.01 1.16l-1.465-.553a.5.5 0 0 0-.564.151l-.992 1.212a1.5 1.5 0 0 1-2.321 0l-.992-1.212a.5.5 0 0 0-.563-.15l-1.465.552a1.5 1.5 0 0 1-2.01-1.16l-.254-1.545a.5.5 0 0 0-.412-.413l-1.545-.253a1.5 1.5 0 0 1-1.16-2.01l.552-1.465a.5.5 0 0 0-.15-.563l-1.212-.992a1.5 1.5 0 0 1 0-2.322l1.211-.991a.5.5 0 0 0 .151-.564l-.553-1.465a1.5 1.5 0 0 1 1.16-2.01l1.546-.253a.5.5 0 0 0 .412-.413l.254-1.545a1.5 1.5 0 0 1 2.01-1.16l1.465.553a.5.5 0 0 0 .563-.151l.992-1.212Zm1.547.634a.5.5 0 0 0-.773 0l-.992 1.211a1.5 1.5 0 0 1-1.69.453l-1.465-.553a.5.5 0 0 0-.67.387l-.254 1.545a1.5 1.5 0 0 1-1.237 1.238l-1.546.253a.5.5 0 0 0-.386.67l.553 1.465a1.5 1.5 0 0 1-.453 1.69l-1.212.992a.5.5 0 0 0 0 .774l1.212.992a1.5 1.5 0 0 1 .453 1.69l-.553 1.465a.5.5 0 0 0 .386.67l1.546.253a1.5 1.5 0 0 1 1.237 1.238l.253 1.545a.5.5 0 0 0 .67.387l1.465-.553a1.5 1.5 0 0 1 1.69.453l.993 1.211a.5.5 0 0 0 .773 0l.992-1.211a1.5 1.5 0 0 1 1.69-.453l1.466.553a.5.5 0 0 0 .67-.387l.253-1.545a1.5 1.5 0 0 1 1.238-1.238l1.545-.253a.5.5 0 0 0 .387-.67l-.554-1.465a1.5 1.5 0 0 1 .453-1.69l1.212-.992a.5.5 0 0 0 0-.774l-1.212-.992a1.5 1.5 0 0 1-.453-1.69l.553-1.465a.5.5 0 0 0-.386-.67l-1.545-.253a1.5 1.5 0 0 1-1.238-1.238l-.253-1.545a.5.5 0 0 0-.67-.387l-1.465.553a1.5 1.5 0 0 1-1.69-.453l-.993-1.211Z" clip-rule="evenodd"></path>
  <path fill="#000" fill-rule="evenodd" d="m17.854 8.854-7 7a.5.5 0 0 1-.707 0l-4-4 .707-.707 3.646 3.646 6.646-6.647.708.708Z" clip-rule="evenodd"></path>
</svg>
