<svg width="438" height="212" viewBox="0 0 438 212" fill="none" xmlns="http://www.w3.org/2000/svg">
<path fill-rule="evenodd" clip-rule="evenodd" d="M306.297 6.73535C306.297 6.73535 315.153 64.5946 279.729 95.2955C254.666 117.017 227.934 116.868 214.441 114.923C221.543 109.648 234.454 99.4793 247.257 86.4412C261.819 71.6128 288.586 33.3072 288.586 33.3072C288.586 33.3072 265.538 60.1687 250.351 75.0418C237.727 87.404 214.87 106.265 206.322 113.243C205.814 113.097 205.547 113.007 205.547 113.007C205.42 111.86 205.293 110.728 205.167 109.609C202.386 84.8139 200.356 66.7217 211.452 45.1114C229.639 9.6891 306.297 6.73535 306.297 6.73535Z" fill="white"/>
<path fill-rule="evenodd" clip-rule="evenodd" d="M119.797 30.3535C119.797 30.3535 112.86 75.677 140.609 99.7262C161.925 118.2 184.781 116.479 194.234 114.688C187.981 107.059 174.63 90.9983 165.654 81.8289C154.006 69.9296 138.033 53.9693 138.033 53.9693C138.033 53.9693 162.97 72.8445 174.583 84.2538C186.745 96.202 195.719 108.268 198.826 112.623C200.99 92.4695 199.653 82.4526 190.712 65.0399C176.466 37.2922 119.797 30.3535 119.797 30.3535Z" fill="white"/>
<path d="M44.2112 121.475C37.7225 121.475 32.8199 122.917 29.5034 125.801C26.187 128.685 24.5288 132.938 24.5288 138.562V145.051H57.5131V156.947H24.5288V185.93H10.4699V138.562C10.4699 129.406 13.3898 122.232 19.2296 117.041C25.1416 111.778 33.2525 109.146 43.5623 109.146C47.8882 109.146 51.9256 109.615 55.6746 110.552C59.4237 111.49 62.7041 112.859 65.5159 114.662L61.0819 126.125C56.6119 123.025 50.9883 121.475 44.2112 121.475ZM121.435 128.18V185.93H108.566V178.468C106.331 181.207 103.555 183.262 100.239 184.632C96.9946 186.002 93.3898 186.687 89.4244 186.687C83.8009 186.687 78.7541 185.461 74.2841 183.01C69.8862 180.558 66.4255 177.098 63.9021 172.628C61.4508 168.158 60.2252 162.967 60.2252 157.055C60.2252 151.143 61.4508 145.988 63.9021 141.59C66.4255 137.12 69.8862 133.659 74.2841 131.208C78.7541 128.757 83.8009 127.531 89.4244 127.531C93.1735 127.531 96.5981 128.18 99.6983 129.478C102.871 130.776 105.61 132.686 107.917 135.21V128.18H121.435ZM90.9385 175.115C95.9132 175.115 100.023 173.457 103.267 170.14C106.511 166.824 108.134 162.462 108.134 157.055C108.134 151.648 106.511 147.286 103.267 143.969C100.023 140.653 95.9132 138.995 90.9385 138.995C85.9638 138.995 81.8543 140.653 78.6099 143.969C75.4376 147.286 73.8515 151.648 73.8515 157.055C73.8515 162.462 75.4376 166.824 78.6099 170.14C81.8543 173.457 85.9638 175.115 90.9385 175.115ZM144.421 136.615C148.315 130.559 155.164 127.531 164.969 127.531V140.4C163.816 140.184 162.77 140.076 161.833 140.076C156.57 140.076 152.46 141.626 149.504 144.726C146.548 147.754 145.07 152.152 145.07 157.92V185.93H131.552V128.18H144.421V136.615ZM241.757 127.531C249.038 127.531 254.806 129.658 259.06 133.912C263.313 138.093 265.44 144.402 265.44 152.837V185.93H251.922V154.568C251.922 149.521 250.805 145.736 248.57 143.212C246.335 140.617 243.126 139.319 238.945 139.319C234.403 139.319 230.762 140.833 228.022 143.861C225.282 146.817 223.913 151.071 223.913 156.622V185.93H210.394V154.568C210.394 149.521 209.277 145.736 207.042 143.212C204.807 140.617 201.599 139.319 197.417 139.319C192.803 139.319 189.126 140.797 186.386 143.753C183.718 146.709 182.385 150.999 182.385 156.622V185.93H168.867V128.18H181.736V135.534C183.899 132.938 186.602 130.956 189.847 129.586C193.091 128.216 196.696 127.531 200.661 127.531C204.987 127.531 208.808 128.36 212.125 130.019C215.513 131.605 218.181 133.984 220.127 137.156C222.507 134.128 225.571 131.785 229.32 130.127C233.069 128.396 237.214 127.531 241.757 127.531ZM275.145 128.18H288.663V185.93H275.145V128.18ZM281.958 118.663C279.507 118.663 277.452 117.906 275.794 116.392C274.135 114.806 273.306 112.859 273.306 110.552C273.306 108.245 274.135 106.335 275.794 104.821C277.452 103.235 279.507 102.441 281.958 102.441C284.409 102.441 286.464 103.198 288.122 104.712C289.78 106.154 290.61 107.993 290.61 110.228C290.61 112.607 289.78 114.626 288.122 116.284C286.536 117.87 284.481 118.663 281.958 118.663ZM331.279 182.793C329.693 184.091 327.746 185.065 325.439 185.713C323.204 186.362 320.825 186.687 318.301 186.687C311.957 186.687 307.054 185.028 303.594 181.712C300.133 178.396 298.403 173.565 298.403 167.221V115.419H311.921V128.613H327.386V139.427H311.921V166.896C311.921 169.708 312.606 171.871 313.976 173.385C315.418 174.827 317.4 175.548 319.924 175.548C322.952 175.548 325.475 174.755 327.494 173.169L331.279 182.793ZM347.752 136.615C351.645 130.559 358.494 127.531 368.299 127.531V140.4C367.146 140.184 366.1 140.076 365.163 140.076C359.9 140.076 355.79 141.626 352.834 144.726C349.879 147.754 348.401 152.152 348.401 157.92V185.93H334.882V128.18H347.752V136.615ZM428.121 128.18V185.93H415.251V178.468C413.016 181.207 410.241 183.262 406.924 184.632C403.68 186.002 400.075 186.687 396.11 186.687C390.486 186.687 385.439 185.461 380.969 183.01C376.571 180.558 373.111 177.098 370.587 172.628C368.136 168.158 366.91 162.967 366.91 157.055C366.91 151.143 368.136 145.988 370.587 141.59C373.111 137.12 376.571 133.659 380.969 131.208C385.439 128.757 390.486 127.531 396.11 127.531C399.859 127.531 403.283 128.18 406.383 129.478C409.556 130.776 412.295 132.686 414.602 135.21V128.18H428.121ZM397.624 175.115C402.598 175.115 406.708 173.457 409.952 170.14C413.197 166.824 414.819 162.462 414.819 157.055C414.819 151.648 413.197 147.286 409.952 143.969C406.708 140.653 402.598 138.995 397.624 138.995C392.649 138.995 388.539 140.653 385.295 143.969C382.123 147.286 380.537 151.648 380.537 157.055C380.537 162.462 382.123 166.824 385.295 170.14C388.539 173.457 392.649 175.115 397.624 175.115Z" fill="white"/>
<line x1="14.5251" y1="205.697" x2="276.663" y2="205.697" stroke="white" stroke-width="3.5424" stroke-linecap="round"/>
<path d="M287.393 204.758V190.872H293.912V192.704H289.491V196.634H292.929V198.485H289.491V204.758H287.393ZM299.965 204.947C299.197 204.947 298.479 204.764 297.812 204.399C297.157 204.034 296.628 203.511 296.225 202.831C295.822 202.151 295.62 201.338 295.62 200.394C295.62 199.487 295.79 198.693 296.13 198.013C296.483 197.333 296.974 196.804 297.604 196.426C298.246 196.048 299.008 195.859 299.89 195.859C300.419 195.859 300.898 195.954 301.326 196.143C301.767 196.319 302.132 196.539 302.422 196.804C302.724 197.056 302.925 197.301 303.026 197.541L303.064 196.086H305.01V204.758H303.083L303.045 203.227C302.919 203.505 302.705 203.775 302.403 204.04C302.113 204.304 301.76 204.525 301.345 204.701C300.929 204.865 300.469 204.947 299.965 204.947ZM300.306 203.246C300.772 203.246 301.194 203.139 301.571 202.925C301.962 202.698 302.27 202.384 302.497 201.981C302.736 201.578 302.856 201.099 302.856 200.545V200.412C302.856 199.846 302.736 199.354 302.497 198.939C302.27 198.511 301.962 198.183 301.571 197.956C301.194 197.717 300.772 197.597 300.306 197.597C299.462 197.597 298.826 197.868 298.397 198.41C297.982 198.951 297.774 199.619 297.774 200.412C297.774 201.219 297.982 201.892 298.397 202.434C298.826 202.976 299.462 203.246 300.306 203.246ZM308.761 204.758V196.086H310.802V197.786C311.003 197.22 311.324 196.76 311.765 196.407C312.219 196.042 312.741 195.859 313.333 195.859C313.736 195.859 314.013 195.897 314.165 195.973L313.881 198.032C313.768 197.956 313.522 197.919 313.144 197.919C312.83 197.919 312.489 197.988 312.124 198.126C311.759 198.265 311.444 198.511 311.18 198.863C310.928 199.203 310.802 199.682 310.802 200.299V204.758H308.761ZM316.819 204.758V196.086H318.86V197.654C319.149 197.037 319.565 196.584 320.107 196.294C320.648 196.004 321.253 195.859 321.92 195.859C322.777 195.872 323.426 196.023 323.866 196.313C324.307 196.602 324.609 196.987 324.773 197.465C325.05 196.974 325.466 196.584 326.02 196.294C326.574 196.004 327.16 195.859 327.777 195.859C328.722 195.859 329.421 196.042 329.874 196.407C330.34 196.76 330.643 197.276 330.781 197.956C330.932 198.624 331.008 199.443 331.008 200.412V204.758H328.949V200.394C328.949 199.424 328.848 198.706 328.646 198.24C328.457 197.774 328.054 197.541 327.437 197.541C326.606 197.541 325.995 197.818 325.605 198.372C325.214 198.926 325.019 199.619 325.019 200.45V204.758H322.978V200.091C322.978 199.55 322.953 199.09 322.903 198.712C322.865 198.334 322.733 198.045 322.506 197.843C322.292 197.642 321.92 197.541 321.391 197.541C320.951 197.541 320.535 197.673 320.144 197.938C319.767 198.202 319.458 198.555 319.219 198.996C318.992 199.424 318.879 199.909 318.879 200.45V204.758H316.819ZM338.865 204.947C337.782 204.947 336.9 204.739 336.22 204.323C335.54 203.895 335.042 203.335 334.728 202.642C334.413 201.949 334.255 201.212 334.255 200.431C334.255 199.487 334.444 198.674 334.822 197.994C335.212 197.314 335.748 196.791 336.428 196.426C337.108 196.048 337.876 195.859 338.733 195.859C340.106 195.859 341.107 196.243 341.737 197.012C342.367 197.767 342.681 198.788 342.681 200.072C342.681 200.412 342.663 200.765 342.625 201.13H336.39C336.529 201.911 336.806 202.472 337.221 202.812C337.65 203.139 338.216 203.303 338.922 203.303C339.602 203.303 340.137 203.24 340.528 203.114C340.918 202.988 341.239 202.862 341.491 202.736L342.115 204.191C341.863 204.355 341.472 204.525 340.943 204.701C340.414 204.865 339.722 204.947 338.865 204.947ZM336.39 199.713H340.698C340.71 198.895 340.528 198.334 340.15 198.032C339.772 197.73 339.281 197.579 338.676 197.579C338.046 197.579 337.53 197.749 337.127 198.089C336.736 198.416 336.491 198.958 336.39 199.713ZM345.957 204.758V196.086H347.998V197.786C348.199 197.22 348.52 196.76 348.961 196.407C349.415 196.042 349.937 195.859 350.529 195.859C350.932 195.859 351.209 195.897 351.361 195.973L351.077 198.032C350.964 197.956 350.718 197.919 350.34 197.919C350.026 197.919 349.685 197.988 349.32 198.126C348.955 198.265 348.64 198.511 348.376 198.863C348.124 199.203 347.998 199.682 347.998 200.299V204.758H345.957ZM353.406 194.934C353.658 194.493 353.859 194.033 354.011 193.554C354.162 193.063 354.25 192.415 354.275 191.608C354.086 191.495 353.91 191.312 353.746 191.061C353.582 190.809 353.501 190.563 353.501 190.324C353.501 189.921 353.639 189.568 353.916 189.266C354.206 188.963 354.565 188.812 354.993 188.812C355.295 188.812 355.554 188.9 355.768 189.077C355.994 189.241 356.171 189.455 356.297 189.719C356.423 189.984 356.486 190.248 356.486 190.513C356.486 190.903 356.423 191.319 356.297 191.76C356.183 192.2 356.032 192.629 355.843 193.044C355.667 193.46 355.465 193.838 355.239 194.178C355.025 194.505 354.81 194.757 354.596 194.934H353.406ZM360.98 204.947C360.577 204.947 360.155 204.909 359.714 204.833C359.286 204.758 358.889 204.663 358.524 204.55C358.171 204.424 357.9 204.292 357.711 204.153L358.391 202.547C358.606 202.698 358.927 202.869 359.355 203.057C359.796 203.246 360.337 203.341 360.98 203.341C361.546 203.341 361.931 203.259 362.132 203.095C362.334 202.919 362.434 202.717 362.434 202.491C362.434 202.251 362.346 202.069 362.17 201.943C362.006 201.804 361.767 201.678 361.452 201.565C361.137 201.452 360.766 201.313 360.337 201.149C359.922 200.973 359.525 200.771 359.147 200.545C358.769 200.305 358.461 200.016 358.221 199.676C357.995 199.323 357.881 198.895 357.881 198.391C357.881 197.572 358.196 196.949 358.826 196.521C359.456 196.08 360.287 195.859 361.32 195.859C361.849 195.859 362.359 195.916 362.85 196.029C363.354 196.143 363.732 196.288 363.984 196.464L363.247 198.089C363.096 197.938 362.844 197.799 362.491 197.673C362.151 197.547 361.742 197.484 361.263 197.484C360.369 197.484 359.922 197.755 359.922 198.296C359.922 198.561 360.016 198.775 360.205 198.939C360.407 199.09 360.665 199.222 360.98 199.336C361.307 199.436 361.66 199.562 362.038 199.713C362.806 200.016 363.392 200.368 363.795 200.771C364.21 201.162 364.418 201.685 364.418 202.34C364.418 202.932 364.261 203.423 363.946 203.813C363.631 204.204 363.209 204.493 362.68 204.682C362.164 204.859 361.597 204.947 360.98 204.947ZM373.926 204.758V190.872H380.444V192.704H376.023V196.634H379.462V198.485H376.023V204.758H373.926ZM382.754 204.758V196.086H384.794V197.786C384.996 197.22 385.317 196.76 385.758 196.407C386.211 196.042 386.734 195.859 387.326 195.859C387.729 195.859 388.006 195.897 388.157 195.973L387.874 198.032C387.761 197.956 387.515 197.919 387.137 197.919C386.822 197.919 386.482 197.988 386.117 198.126C385.752 198.265 385.437 198.511 385.172 198.863C384.92 199.203 384.794 199.682 384.794 200.299V204.758H382.754ZM390.871 204.758V196.086H392.987V204.758H390.871ZM391.929 194.461C391.539 194.461 391.211 194.329 390.947 194.064C390.695 193.8 390.569 193.472 390.569 193.082C390.569 192.729 390.695 192.427 390.947 192.175C391.211 191.923 391.539 191.797 391.929 191.797C392.319 191.797 392.641 191.923 392.892 192.175C393.157 192.427 393.289 192.729 393.289 193.082C393.289 193.472 393.157 193.8 392.892 194.064C392.641 194.329 392.319 194.461 391.929 194.461ZM400.976 204.947C399.893 204.947 399.011 204.739 398.331 204.323C397.651 203.895 397.153 203.335 396.838 202.642C396.524 201.949 396.366 201.212 396.366 200.431C396.366 199.487 396.555 198.674 396.933 197.994C397.323 197.314 397.859 196.791 398.539 196.426C399.219 196.048 399.987 195.859 400.844 195.859C402.217 195.859 403.218 196.243 403.848 197.012C404.477 197.767 404.792 198.788 404.792 200.072C404.792 200.412 404.773 200.765 404.736 201.13H398.501C398.64 201.911 398.917 202.472 399.332 202.812C399.761 203.139 400.327 203.303 401.033 203.303C401.713 203.303 402.248 203.24 402.639 203.114C403.029 202.988 403.35 202.862 403.602 202.736L404.226 204.191C403.974 204.355 403.583 204.525 403.054 204.701C402.525 204.865 401.832 204.947 400.976 204.947ZM398.501 199.713H402.809C402.821 198.895 402.639 198.334 402.261 198.032C401.883 197.73 401.392 197.579 400.787 197.579C400.157 197.579 399.641 197.749 399.238 198.089C398.847 198.416 398.602 198.958 398.501 199.713ZM408.069 204.758V196.086H410.072L410.091 197.673C410.318 197.157 410.683 196.728 411.187 196.388C411.703 196.036 412.32 195.859 413.038 195.859C413.97 195.859 414.669 196.055 415.135 196.445C415.601 196.823 415.91 197.364 416.061 198.07C416.225 198.775 416.307 199.613 416.307 200.582V204.758H414.266V200.639C414.266 199.632 414.166 198.863 413.964 198.334C413.775 197.805 413.328 197.541 412.623 197.541C412.257 197.541 411.88 197.654 411.489 197.881C411.099 198.108 410.771 198.435 410.507 198.863C410.242 199.291 410.11 199.82 410.11 200.45V204.758H408.069ZM423.91 204.947C423.141 204.947 422.424 204.764 421.756 204.399C421.101 204.034 420.572 203.511 420.169 202.831C419.766 202.151 419.564 201.338 419.564 200.394C419.564 199.474 419.734 198.681 420.075 198.013C420.427 197.333 420.918 196.804 421.548 196.426C422.191 196.048 422.953 195.859 423.834 195.859C424.338 195.859 424.81 195.947 425.251 196.124C425.692 196.288 426.07 196.508 426.385 196.785C426.7 197.062 426.926 197.364 427.065 197.692L426.97 196.218V190.872H428.973V204.758H427.027L426.989 203.227C426.863 203.505 426.649 203.775 426.347 204.04C426.057 204.304 425.705 204.525 425.289 204.701C424.873 204.865 424.414 204.947 423.91 204.947ZM424.25 203.227C424.716 203.227 425.138 203.12 425.516 202.906C425.906 202.68 426.215 202.365 426.441 201.962C426.681 201.559 426.8 201.08 426.8 200.526V200.394C426.8 199.827 426.681 199.336 426.441 198.92C426.215 198.492 425.906 198.164 425.516 197.938C425.138 197.698 424.716 197.579 424.25 197.579C423.406 197.579 422.77 197.849 422.342 198.391C421.926 198.933 421.718 199.6 421.718 200.394C421.718 201.2 421.926 201.874 422.342 202.415C422.77 202.957 423.406 203.227 424.25 203.227Z" fill="white"/>
</svg>
