<svg xmlns="http://www.w3.org/2000/svg" width="512" height="512" fill-rule="evenodd" clip-rule="evenodd" image-rendering="optimizeQuality" shape-rendering="geometricPrecision" text-rendering="geometricPrecision" viewBox="0 0 512 512" id="plant">
  <path d="M241.094 355.49c-0.486616,0 -0.979137,-0.0708664 -1.46693,-0.222048 -2.64095,-0.809058 -4.1256,-3.60474 -3.31536,-6.24569 32.334,-105.475 9.51145,-264.569 9.27759,-266.162 -0.400395,-2.7319 1.48819,-5.27246 4.22009,-5.67403 2.73072,-0.395671 5.27128,1.48701 5.67285,4.21891 0.0602364,0.403938 5.9634,41.0316 7.72325,94.3101 1.62756,49.2958 -0.0578742,119.887 -17.3327,176.24 -0.660238,2.14961 -2.64095,3.53505 -4.77875,3.53505z"></path>
  <path d="M257.147 259.461c-.407482 0-.82205-.0496065-1.23426-.153544-2.67757-.681498-4.29568-3.4004-3.61537-6.07797 1.91339-7.53428 20.2489-74.0672 73.9502-89.8609 2.64804-.781892 5.42836.73701 6.20671 3.38505.77953 2.64922-.735829 5.42836-3.38505 6.20789-49.219 14.4768-66.3734 79.9502-67.0797 82.7306-.574018 2.26182-2.60906 3.76891-4.84253 3.76891zM247.214 332.184c-1.02992 0-2.06694-.316536-2.95985-.973231-2.22402-1.63701-2.70001-4.76694-1.063-6.99097 3.75001-5.09647 37.5733-50.2336 69.8412-65.5986 2.4945-1.18701 5.47797-.127559 6.6638 2.36457 1.18819 2.49331.128741 5.47679-2.36457 6.6638-30.0639 14.315-62.4888 57.6073-66.0864 62.497-.980318 1.33229-2.49568 2.03741-4.03111 2.03741z"></path>
  <path d="M253.893 293.348c-2.32914 0-4.41497-1.63583-4.89568-4.00749-.173623-.848034-14.7638-69.6605-66.103-110.429-2.16261-1.71615-2.52402-4.86143-.805514-7.02404 1.71497-2.16261 4.86261-2.5252 7.02404-.806695 54.3167 43.134 69.0841 113.305 69.6853 116.272.550395 2.70591-1.19882 5.3445-3.90474 5.8949-.336615.067323-.672049.100394-1.0004.100394zM244.039 345.205c-1.73977 0-3.43111-.909452-4.35238-2.52993-.248032-.435828-24.006-41.5667-53.8029-42.2765-2.76024-.0661419-4.94411-2.35631-4.87797-5.11773.0649608-2.76024 2.3693-4.92639 5.11773-4.88033 35.4769.846853 61.1825 45.4395 62.2585 47.3364 1.363 2.40119.520868 5.45435-1.88032 6.81616-.77953.442915-1.62638.651971-2.46261.651971zM249.898 142.191c-26.1733 0-47.4675-21.293-47.4675-47.4663 0-24.4619 35.706-89.3814 37.2261-92.1334.825593-1.49528 2.35749-2.46497 4.06182-2.57127 1.71497-.111024 3.34725.663782 4.35356 2.04213 5.0445 6.91656 49.2923 68.2833 49.2923 92.6613 0 26.1733-21.293 47.4675-47.4663 47.4675zm-5.27482-127.753c-11.5737 21.8351-32.1922 64.0927-32.1922 80.2869 0 20.6587 16.8083 37.467 37.467 37.467 20.6599 0 37.467-16.8083 37.467-37.467 0-16.0701-27.5753-58.6785-42.7419-80.2869z"></path>
  <path d="M198.032 222.262c-9.1394 0-17.7319-3.55985-24.195-10.0229-11.9776-11.9741-25.5946-58.3549-27.1087-63.6037-.472442-1.64174-.0755908-3.41103 1.05473-4.69135 1.12914-1.28268 2.83229-1.89922 4.52245-1.63347 5.87128.917719 57.7112 9.32719 69.9227 21.5386 6.46301 6.46183 10.0217 15.0556 10.0217 24.195 0 9.1394-3.55985 17.7331-10.0217 24.195-6.46301 6.46301-15.0567 10.0229-24.1961 10.0229zm-39.3793-68.738c5.19096 16.565 14.9587 44.3482 22.2556 51.6427 4.57442 4.5756 10.6559 7.0949 17.1237 7.0949 6.46892 0 12.5504-2.5193 17.126-7.09372 4.57324-4.57324 7.09254-10.6559 7.09254-17.1237 0-6.46892-2.5193-12.5516-7.09254-17.1249-6.5953-6.5953-35.4355-13.5922-56.5053-17.3953zM321.616 207.04c-13.2745 0-25.4646-7.7764-31.0536-19.8107-3.85159-8.289-4.24371-17.5819-1.10433-26.1662 3.1382-8.58428 9.43231-15.4311 17.7213-19.2816 6.66262-3.09568 19.5497-4.59923 39.3946-4.59923 15.4264 0 29.5099.97205 29.6493.98268 1.70434.119292 3.22914 1.09961 4.04529 2.6008.814963 1.50119.807877 3.31418-.0200788 4.80946-2.87954 5.19805-28.578 50.999-44.2383 58.2734-4.55789 2.11772-9.4016 3.19135-14.3941 3.19135zm24.9591-59.8585c-23.7402 0-32.2324 2.29843-35.184 3.66852-5.86655 2.72481-10.3205 7.57207-12.5422 13.6465-2.22048 6.07561-1.94292 12.652.781892 18.5186 3.95671 8.5205 12.5847 14.0233 21.9827 14.0233 3.52678 0 6.95435-.760632 10.1835-2.26064 8.45554-3.92836 24.9237-28.5993 35.732-47.0812-5.41065-.250394-12.9993-.514962-20.954-.514962zM313.08 297.336c-11.6233 0-22.2969-6.80908-27.1914-17.3469-6.95908-14.9823-.431104-32.8347 14.5524-39.7938 5.79096-2.69056 16.9004-3.99922 33.9651-3.99922 13.2048 0 24.8918.806695 25.382.842129 1.70434.119292 3.22796 1.09961 4.04411 2.6008.814963 1.50119.809058 3.31536-.0200788 4.80946-4.03111 7.28034-24.8186 43.9123-38.1261 50.0931-3.99332 1.85316-8.23349 2.7945-12.6059 2.7945zm21.326-51.1383c-20.1438 0-27.2871 1.92166-29.7532 3.06615-9.98153 4.63702-14.3315 16.5308-9.69452 26.5135 3.26221 7.02049 10.3748 11.5595 18.1217 11.5595 2.9067 0 5.73073-.627167 8.39412-1.86379 6.92719-3.21851 20.4201-23.3162 29.5962-38.8891-4.50356-.197245-10.454-.386222-16.6642-.386222zM195.792 325.043c-4.98191 0-9.89649-1.33937-14.2122-3.87285-11.7768-6.91656-31.5627-39.9202-33.7808-43.6596-.871656-1.47048-.931893-3.28229-.161812-4.8071.771262-1.52481 2.26772-2.55001 3.96734-2.71891.615356-.0625986 15.2363-1.5 29.9552-1.5 19.1162 0 25.415 2.40119 28.4883 4.2071 6.47482 3.8008 11.0811 9.89649 12.9709 17.1638 1.88977 7.26616.836223 14.8335-2.96576 21.3083-5.02679 8.56184-14.3245 13.8792-24.2611 13.8792zm-35.1792-45.756c8.24884 13.0831 19.9654 29.6977 26.0304 33.2599 2.78269 1.63465 5.94569 2.49804 9.14885 2.49804 6.40632 0 12.3993-3.42757 15.6378-8.94452 2.44961-4.17049 3.12757-9.04491 1.91103-13.7268-1.21772-4.6819-4.18584-8.60908-8.35632-11.0587-1.44804-.851577-6.63073-2.82875-23.4249-2.82875-7.63467-.00118111-15.3863.413387-20.9469.80079zM275.369 511.991l-69.8187 0c-41.0375 0-74.4239-33.3875-74.4239-74.425l0-74.9459c0-9.4453 7.68428-17.1308 17.1308-17.1308l184.405 0c9.44649 0 17.1308 7.68546 17.1308 17.1308l0 74.9459c0 41.0375-33.3863 74.425-74.4239 74.425zm-127.113-156.502c-3.93072 0-7.13034 3.19844-7.13034 7.13152l0 74.9459c0 35.5241 28.9017 64.4246 64.4246 64.4246l69.8187 0c35.5229 0 64.4234-28.8993 64.4234-64.4246l0-74.9459c0-3.93308-3.19844-7.13152-7.13034-7.13152l-184.406 0z"></path>
  <path d="M343.629 455.204l-206.338 0c-2.40828,0 -4.47521,-1.71733 -4.91576,-4.08663 -0.827955,-4.45986 -1.24843,-9.02011 -1.24843,-13.5508l0 -30.2906c0,-2.76261 2.23701,-4.99962 4.99962,-4.99962l208.666 0c2.76143,0 4.99962,2.2382 4.99962,4.99962l0 30.2906c0,4.53308 -0.420474,9.09334 -1.24843,13.5508 -0.439371,2.3693 -2.50513,4.08663 -4.91458,4.08663zm-202.045 -9.99924l197.751 0c0.304725,-2.53465 0.457088,-5.09175 0.457088,-7.63821l0 -25.291 -198.666 0 0 25.291c0,2.54646 0.153544,5.10238 0.457088,7.63821z"></path>
</svg>
