<svg width="438" height="212" viewBox="0 0 438 212" fill="none" xmlns="http://www.w3.org/2000/svg">
<path fill-rule="evenodd" clip-rule="evenodd" d="M306.297 5.90234C306.297 5.90234 315.153 63.7616 279.729 94.4625C254.666 116.184 227.934 116.035 214.441 114.09C221.543 108.815 234.453 98.6463 247.257 85.6082C261.819 70.7798 288.585 32.4742 288.585 32.4742C288.585 32.4742 265.538 59.3357 250.35 74.2087C237.727 86.5709 214.87 105.432 206.322 112.41C205.814 112.264 205.547 112.174 205.547 112.174C205.42 111.027 205.293 109.895 205.167 108.776C202.386 83.9809 200.356 65.8886 211.452 44.2784C229.639 8.85609 306.297 5.90234 306.297 5.90234Z" fill="#3AB54A"/>
<path fill-rule="evenodd" clip-rule="evenodd" d="M119.797 29.5205C119.797 29.5205 112.86 74.844 140.609 98.8932C161.925 117.367 184.781 115.646 194.234 113.855C187.981 106.226 174.63 90.1653 165.654 80.9959C154.006 69.0966 138.033 53.1363 138.033 53.1363C138.033 53.1363 162.97 72.0115 174.583 83.4208C186.745 95.3691 195.719 107.436 198.826 111.79C200.99 91.6365 199.653 81.6196 190.712 64.2069C176.466 36.4591 119.797 29.5205 119.797 29.5205Z" fill="#3AB54A"/>
<path d="M44.2112 120.642C37.7225 120.642 32.8199 122.084 29.5034 124.968C26.187 127.852 24.5288 132.105 24.5288 137.729V144.218H57.5131V156.114H24.5288V185.097H10.4699V137.729C10.4699 128.573 13.3898 121.399 19.2296 116.208C25.1416 110.945 33.2525 108.313 43.5623 108.313C47.8882 108.313 51.9256 108.782 55.6746 109.719C59.4237 110.657 62.7041 112.026 65.5159 113.829L61.0819 125.292C56.6119 122.192 50.9883 120.642 44.2112 120.642ZM121.435 127.347V185.097H108.566V177.635C106.331 180.374 103.555 182.429 100.239 183.799C96.9946 185.169 93.3898 185.854 89.4244 185.854C83.8009 185.854 78.7541 184.628 74.2841 182.177C69.8862 179.725 66.4255 176.265 63.9021 171.795C61.4508 167.325 60.2252 162.134 60.2252 156.222C60.2252 150.31 61.4508 145.155 63.9021 140.757C66.4255 136.287 69.8862 132.826 74.2841 130.375C78.7541 127.924 83.8009 126.698 89.4244 126.698C93.1735 126.698 96.5981 127.347 99.6983 128.645C102.871 129.943 105.61 131.853 107.917 134.376V127.347H121.435ZM90.9385 174.282C95.9132 174.282 100.023 172.624 103.267 169.307C106.511 165.991 108.134 161.629 108.134 156.222C108.134 150.815 106.511 146.453 103.267 143.136C100.023 139.82 95.9132 138.162 90.9385 138.162C85.9638 138.162 81.8543 139.82 78.6099 143.136C75.4376 146.453 73.8515 150.815 73.8515 156.222C73.8515 161.629 75.4376 165.991 78.6099 169.307C81.8543 172.624 85.9638 174.282 90.9385 174.282ZM144.421 135.782C148.315 129.726 155.164 126.698 164.969 126.698V139.567C163.816 139.351 162.77 139.243 161.833 139.243C156.57 139.243 152.46 140.793 149.504 143.893C146.548 146.921 145.07 151.319 145.07 157.087V185.097H131.552V127.347H144.421V135.782ZM241.757 126.698C249.038 126.698 254.806 128.825 259.06 133.079C263.313 137.26 265.44 143.569 265.44 152.004V185.097H251.922V153.735C251.922 148.688 250.805 144.903 248.57 142.379C246.335 139.784 243.126 138.486 238.945 138.486C234.403 138.486 230.762 140 228.022 143.028C225.282 145.984 223.913 150.238 223.913 155.789V185.097H210.394V153.735C210.394 148.688 209.277 144.903 207.042 142.379C204.807 139.784 201.599 138.486 197.417 138.486C192.803 138.486 189.126 139.964 186.386 142.92C183.718 145.876 182.385 150.166 182.385 155.789V185.097H168.867V127.347H181.736V134.701C183.899 132.105 186.602 130.123 189.847 128.753C193.091 127.383 196.696 126.698 200.661 126.698C204.987 126.698 208.808 127.527 212.125 129.186C215.513 130.772 218.181 133.151 220.127 136.323C222.507 133.295 225.571 130.952 229.32 129.294C233.069 127.563 237.214 126.698 241.757 126.698ZM275.145 127.347H288.663V185.097H275.145V127.347ZM281.958 117.83C279.507 117.83 277.452 117.073 275.794 115.559C274.135 113.973 273.306 112.026 273.306 109.719C273.306 107.412 274.135 105.502 275.794 103.988C277.452 102.402 279.507 101.608 281.958 101.608C284.409 101.608 286.464 102.365 288.122 103.879C289.78 105.321 290.61 107.16 290.61 109.395C290.61 111.774 289.78 113.793 288.122 115.451C286.536 117.037 284.481 117.83 281.958 117.83ZM331.279 181.96C329.693 183.258 327.746 184.232 325.439 184.88C323.204 185.529 320.825 185.854 318.301 185.854C311.957 185.854 307.054 184.195 303.594 180.879C300.133 177.563 298.403 172.732 298.403 166.388V114.586H311.921V127.78H327.386V138.594H311.921V166.063C311.921 168.875 312.606 171.038 313.976 172.552C315.418 173.994 317.4 174.715 319.924 174.715C322.952 174.715 325.475 173.922 327.494 172.336L331.279 181.96ZM347.752 135.782C351.645 129.726 358.494 126.698 368.299 126.698V139.567C367.146 139.351 366.1 139.243 365.163 139.243C359.9 139.243 355.79 140.793 352.834 143.893C349.879 146.921 348.401 151.319 348.401 157.087V185.097H334.882V127.347H347.752V135.782ZM428.121 127.347V185.097H415.251V177.635C413.016 180.374 410.241 182.429 406.924 183.799C403.68 185.169 400.075 185.854 396.11 185.854C390.486 185.854 385.439 184.628 380.969 182.177C376.571 179.725 373.111 176.265 370.587 171.795C368.136 167.325 366.91 162.134 366.91 156.222C366.91 150.31 368.136 145.155 370.587 140.757C373.111 136.287 376.571 132.826 380.969 130.375C385.439 127.924 390.486 126.698 396.11 126.698C399.859 126.698 403.283 127.347 406.383 128.645C409.556 129.943 412.295 131.853 414.602 134.376V127.347H428.121ZM397.624 174.282C402.598 174.282 406.708 172.624 409.952 169.307C413.197 165.991 414.819 161.629 414.819 156.222C414.819 150.815 413.197 146.453 409.952 143.136C406.708 139.82 402.598 138.162 397.624 138.162C392.649 138.162 388.539 139.82 385.295 143.136C382.123 146.453 380.537 150.815 380.537 156.222C380.537 161.629 382.123 165.991 385.295 169.307C388.539 172.624 392.649 174.282 397.624 174.282Z" fill="#383838"/>
<line x1="14.5251" y1="208.864" x2="276.663" y2="208.864" stroke="#383838" stroke-width="3.5424" stroke-linecap="round"/>
<path d="M287.393 207.925V194.039H293.912V195.871H289.491V199.801H292.929V201.652H289.491V207.925H287.393ZM299.965 208.114C299.197 208.114 298.479 207.931 297.812 207.566C297.157 207.201 296.628 206.678 296.225 205.998C295.822 205.318 295.62 204.505 295.62 203.561C295.62 202.654 295.79 201.86 296.13 201.18C296.483 200.5 296.974 199.971 297.604 199.593C298.246 199.215 299.008 199.026 299.89 199.026C300.419 199.026 300.898 199.121 301.326 199.31C301.767 199.486 302.132 199.706 302.422 199.971C302.724 200.223 302.925 200.468 303.026 200.708L303.064 199.253H305.01V207.925H303.083L303.045 206.394C302.919 206.672 302.705 206.942 302.403 207.207C302.113 207.471 301.76 207.692 301.345 207.868C300.929 208.032 300.469 208.114 299.965 208.114ZM300.306 206.413C300.772 206.413 301.194 206.306 301.571 206.092C301.962 205.865 302.27 205.551 302.497 205.148C302.736 204.745 302.856 204.266 302.856 203.712V203.579C302.856 203.013 302.736 202.521 302.497 202.106C302.27 201.678 301.962 201.35 301.571 201.123C301.194 200.884 300.772 200.764 300.306 200.764C299.462 200.764 298.826 201.035 298.397 201.577C297.982 202.118 297.774 202.786 297.774 203.579C297.774 204.386 297.982 205.059 298.397 205.601C298.826 206.143 299.462 206.413 300.306 206.413ZM308.761 207.925V199.253H310.802V200.953C311.003 200.387 311.324 199.927 311.765 199.574C312.219 199.209 312.741 199.026 313.333 199.026C313.736 199.026 314.013 199.064 314.165 199.14L313.881 201.199C313.768 201.123 313.522 201.086 313.144 201.086C312.83 201.086 312.489 201.155 312.124 201.293C311.759 201.432 311.444 201.678 311.18 202.03C310.928 202.37 310.802 202.849 310.802 203.466V207.925H308.761ZM316.819 207.925V199.253H318.86V200.821C319.149 200.204 319.565 199.751 320.107 199.461C320.648 199.171 321.253 199.026 321.92 199.026C322.777 199.039 323.426 199.19 323.866 199.48C324.307 199.769 324.609 200.154 324.773 200.632C325.05 200.141 325.466 199.751 326.02 199.461C326.574 199.171 327.16 199.026 327.777 199.026C328.722 199.026 329.421 199.209 329.874 199.574C330.34 199.927 330.643 200.443 330.781 201.123C330.932 201.791 331.008 202.61 331.008 203.579V207.925H328.949V203.561C328.949 202.591 328.848 201.873 328.646 201.407C328.457 200.941 328.054 200.708 327.437 200.708C326.606 200.708 325.995 200.985 325.605 201.539C325.214 202.093 325.019 202.786 325.019 203.617V207.925H322.978V203.258C322.978 202.717 322.953 202.257 322.903 201.879C322.865 201.501 322.733 201.212 322.506 201.01C322.292 200.809 321.92 200.708 321.391 200.708C320.951 200.708 320.535 200.84 320.144 201.104C319.767 201.369 319.458 201.722 319.219 202.162C318.992 202.591 318.879 203.076 318.879 203.617V207.925H316.819ZM338.865 208.114C337.782 208.114 336.9 207.906 336.22 207.49C335.54 207.062 335.042 206.502 334.728 205.809C334.413 205.116 334.255 204.379 334.255 203.598C334.255 202.654 334.444 201.841 334.822 201.161C335.212 200.481 335.748 199.958 336.428 199.593C337.108 199.215 337.876 199.026 338.733 199.026C340.106 199.026 341.107 199.41 341.737 200.179C342.367 200.934 342.681 201.955 342.681 203.239C342.681 203.579 342.663 203.932 342.625 204.297H336.39C336.529 205.078 336.806 205.639 337.221 205.979C337.65 206.306 338.216 206.47 338.922 206.47C339.602 206.47 340.137 206.407 340.528 206.281C340.918 206.155 341.239 206.029 341.491 205.903L342.115 207.358C341.863 207.522 341.472 207.692 340.943 207.868C340.414 208.032 339.722 208.114 338.865 208.114ZM336.39 202.88H340.698C340.71 202.062 340.528 201.501 340.15 201.199C339.772 200.897 339.281 200.746 338.676 200.746C338.046 200.746 337.53 200.916 337.127 201.256C336.736 201.583 336.491 202.125 336.39 202.88ZM345.957 207.925V199.253H347.998V200.953C348.199 200.387 348.52 199.927 348.961 199.574C349.415 199.209 349.937 199.026 350.529 199.026C350.932 199.026 351.209 199.064 351.361 199.14L351.077 201.199C350.964 201.123 350.718 201.086 350.34 201.086C350.026 201.086 349.685 201.155 349.32 201.293C348.955 201.432 348.64 201.678 348.376 202.03C348.124 202.37 347.998 202.849 347.998 203.466V207.925H345.957ZM353.406 198.101C353.658 197.66 353.859 197.2 354.011 196.721C354.162 196.23 354.25 195.581 354.275 194.775C354.086 194.662 353.91 194.479 353.746 194.228C353.582 193.976 353.501 193.73 353.501 193.491C353.501 193.088 353.639 192.735 353.916 192.433C354.206 192.13 354.565 191.979 354.993 191.979C355.295 191.979 355.554 192.067 355.768 192.244C355.994 192.407 356.171 192.622 356.297 192.886C356.423 193.151 356.486 193.415 356.486 193.68C356.486 194.07 356.423 194.486 356.297 194.927C356.183 195.367 356.032 195.796 355.843 196.211C355.667 196.627 355.465 197.005 355.239 197.345C355.025 197.672 354.81 197.924 354.596 198.101H353.406ZM360.98 208.114C360.577 208.114 360.155 208.076 359.714 208C359.286 207.925 358.889 207.83 358.524 207.717C358.171 207.591 357.9 207.459 357.711 207.32L358.391 205.714C358.606 205.865 358.927 206.036 359.355 206.224C359.796 206.413 360.337 206.508 360.98 206.508C361.546 206.508 361.931 206.426 362.132 206.262C362.334 206.086 362.434 205.884 362.434 205.658C362.434 205.418 362.346 205.236 362.17 205.11C362.006 204.971 361.767 204.845 361.452 204.732C361.137 204.619 360.766 204.48 360.337 204.316C359.922 204.14 359.525 203.938 359.147 203.712C358.769 203.472 358.461 203.183 358.221 202.843C357.995 202.49 357.881 202.062 357.881 201.558C357.881 200.739 358.196 200.116 358.826 199.688C359.456 199.247 360.287 199.026 361.32 199.026C361.849 199.026 362.359 199.083 362.85 199.196C363.354 199.31 363.732 199.455 363.984 199.631L363.247 201.256C363.096 201.104 362.844 200.966 362.491 200.84C362.151 200.714 361.742 200.651 361.263 200.651C360.369 200.651 359.922 200.922 359.922 201.463C359.922 201.728 360.016 201.942 360.205 202.106C360.407 202.257 360.665 202.389 360.98 202.503C361.307 202.603 361.66 202.729 362.038 202.88C362.806 203.183 363.392 203.535 363.795 203.938C364.21 204.329 364.418 204.852 364.418 205.507C364.418 206.098 364.261 206.59 363.946 206.98C363.631 207.371 363.209 207.66 362.68 207.849C362.164 208.026 361.597 208.114 360.98 208.114ZM373.926 207.925V194.039H380.444V195.871H376.023V199.801H379.462V201.652H376.023V207.925H373.926ZM382.754 207.925V199.253H384.794V200.953C384.996 200.387 385.317 199.927 385.758 199.574C386.211 199.209 386.734 199.026 387.326 199.026C387.729 199.026 388.006 199.064 388.157 199.14L387.874 201.199C387.761 201.123 387.515 201.086 387.137 201.086C386.822 201.086 386.482 201.155 386.117 201.293C385.752 201.432 385.437 201.678 385.172 202.03C384.92 202.37 384.794 202.849 384.794 203.466V207.925H382.754ZM390.871 207.925V199.253H392.987V207.925H390.871ZM391.929 197.628C391.539 197.628 391.211 197.496 390.947 197.231C390.695 196.967 390.569 196.639 390.569 196.249C390.569 195.896 390.695 195.594 390.947 195.342C391.211 195.09 391.539 194.964 391.929 194.964C392.319 194.964 392.641 195.09 392.892 195.342C393.157 195.594 393.289 195.896 393.289 196.249C393.289 196.639 393.157 196.967 392.892 197.231C392.641 197.496 392.319 197.628 391.929 197.628ZM400.976 208.114C399.893 208.114 399.011 207.906 398.331 207.49C397.651 207.062 397.153 206.502 396.838 205.809C396.524 205.116 396.366 204.379 396.366 203.598C396.366 202.654 396.555 201.841 396.933 201.161C397.323 200.481 397.859 199.958 398.539 199.593C399.219 199.215 399.987 199.026 400.844 199.026C402.217 199.026 403.218 199.41 403.848 200.179C404.477 200.934 404.792 201.955 404.792 203.239C404.792 203.579 404.773 203.932 404.736 204.297H398.501C398.64 205.078 398.917 205.639 399.332 205.979C399.761 206.306 400.327 206.47 401.033 206.47C401.713 206.47 402.248 206.407 402.639 206.281C403.029 206.155 403.35 206.029 403.602 205.903L404.226 207.358C403.974 207.522 403.583 207.692 403.054 207.868C402.525 208.032 401.832 208.114 400.976 208.114ZM398.501 202.88H402.809C402.821 202.062 402.639 201.501 402.261 201.199C401.883 200.897 401.392 200.746 400.787 200.746C400.157 200.746 399.641 200.916 399.238 201.256C398.847 201.583 398.602 202.125 398.501 202.88ZM408.069 207.925V199.253H410.072L410.091 200.84C410.318 200.324 410.683 199.895 411.187 199.555C411.703 199.203 412.32 199.026 413.038 199.026C413.97 199.026 414.669 199.222 415.135 199.612C415.601 199.99 415.91 200.531 416.061 201.237C416.225 201.942 416.307 202.78 416.307 203.749V207.925H414.266V203.806C414.266 202.799 414.166 202.03 413.964 201.501C413.775 200.972 413.328 200.708 412.623 200.708C412.257 200.708 411.88 200.821 411.489 201.048C411.099 201.275 410.771 201.602 410.507 202.03C410.242 202.458 410.11 202.987 410.11 203.617V207.925H408.069ZM423.91 208.114C423.141 208.114 422.424 207.931 421.756 207.566C421.101 207.201 420.572 206.678 420.169 205.998C419.766 205.318 419.564 204.505 419.564 203.561C419.564 202.641 419.734 201.848 420.075 201.18C420.427 200.5 420.918 199.971 421.548 199.593C422.191 199.215 422.953 199.026 423.834 199.026C424.338 199.026 424.81 199.114 425.251 199.291C425.692 199.455 426.07 199.675 426.385 199.952C426.7 200.229 426.926 200.531 427.065 200.859L426.97 199.385V194.039H428.973V207.925H427.027L426.989 206.394C426.863 206.672 426.649 206.942 426.347 207.207C426.057 207.471 425.705 207.692 425.289 207.868C424.873 208.032 424.414 208.114 423.91 208.114ZM424.25 206.394C424.716 206.394 425.138 206.287 425.516 206.073C425.906 205.847 426.215 205.532 426.441 205.129C426.681 204.726 426.8 204.247 426.8 203.693V203.561C426.8 202.994 426.681 202.503 426.441 202.087C426.215 201.659 425.906 201.331 425.516 201.104C425.138 200.865 424.716 200.746 424.25 200.746C423.406 200.746 422.77 201.016 422.342 201.558C421.926 202.1 421.718 202.767 421.718 203.561C421.718 204.367 421.926 205.041 422.342 205.582C422.77 206.124 423.406 206.394 424.25 206.394Z" fill="#383838"/>
</svg>
