<?xml version="1.0" encoding="iso-8859-1"?>
<!-- Uploaded to: SVG Repo, www.svgrepo.com, Generator: SVG Repo Mixer Tools -->
<!DOCTYPE svg PUBLIC "-//W3C//DTD SVG 1.1//EN" "http://www.w3.org/Graphics/SVG/1.1/DTD/svg11.dtd">
<svg fill="#000000" version="1.1" id="Capa_1" xmlns="http://www.w3.org/2000/svg" xmlns:xlink="http://www.w3.org/1999/xlink" 
	 width="800px" height="800px" viewBox="0 0 538.684 538.685"
	 xml:space="preserve">
<g>
	<g id="iconos">
		<path d="M341.061,494.716V387.281c0-7.401-19.125-11.925-47.812-13.598V344.25h-47.812v29.434
			c-19.125,1.673-47.812,6.196-47.812,13.598v107.435c0,19.011,72.675,43.969,72.675,43.969S341.061,513.717,341.061,494.716z"/>
		<rect x="254.999" y="153" width="28.688" height="172.125"/>
		<path d="M293.249,83.165c18.59-16.333,19.89-51.054,20.53-68.372L314.477,0h-92.66l0.574,11.379
			c0.832,17.079,2.821,55.959,23.045,72.685v49.811h47.812V83.165z M268.147,72.914c-14.181,0-20.741-16.027-23.916-34.664h48.53
			C289.998,58.054,283.638,72.914,268.147,72.914z"/>
	</g>
</g>
</svg>