<?xml version="1.0" ?>
<!-- Uploaded to: SVG Repo, www.svgrepo.com, Generator: SVG Repo Mixer Tools -->
<svg fill="#000000" width="800px" height="800px" viewBox="0 0 512 512" xmlns="http://www.w3.org/2000/svg">
<g id="Non-chemical_food">
<path d="M197.6267,181.3539a16.601,16.601,0,0,1,3.53-3.23,94.039,94.039,0,0,1-5.0019-124.17,5.9346,5.9346,0,0,0,1.1426,1.4539l48.4448,43.8028-24.82,28.1789a10.3765,10.3765,0,0,0,.9309,14.6448l9.3364,8.2207-15.3823,17.478a5.5,5.5,0,0,0,8.2578,7.2676l15.3809-17.4763,9.3384,8.2224a10.3763,10.3763,0,0,0,14.645-.9307l24.3186-27.6242L301,149.1738a6,6,0,1,0,8.0479-8.9l-13.37-12.0889c9.7012-11.02,18.6336-21.167,21.8521-24.824a1.7812,1.7812,0,0,1,2.5173-.1558l1.7237,1.5159a3.3932,3.3932,0,0,0,4.7888-.3068l3.8772-4.4084a3.3933,3.3933,0,0,0-.3069-4.7889L309.9443,77.4626l6.4485-7.324,9.0691,7.9854a5.5,5.5,0,1,0,7.2691-8.2559l-13.1929-11.616-.0039-.0041-.0047-.0034L306.34,46.6318a5.5,5.5,0,1,0-7.2685,8.2558l9.0654,7.9817-6.4524,7.3284L281.439,52.3913a3.3936,3.3936,0,0,0-4.7891.307l-3.8772,4.4083a3.3932,3.3932,0,0,0,.3069,4.7888l1.7729,1.5594a1.7814,1.7814,0,0,1,.1656,2.5183c-3.1646,3.5924-11.8423,13.4444-21.3443,24.2324L205.3452,46.5078a5.9273,5.9273,0,0,0-1.4956-.96,94.1612,94.1612,0,0,1,139.5476,125.83L325.7026,155.33a6,6,0,0,0-8.0615,8.8887l17.7464,16.094a94.0842,94.0842,0,0,1-97.9407,21.5112,85.0807,85.0807,0,0,1,5.78,14.31,106.404,106.404,0,1,0-50.06-29.02C194.6868,185.0239,196.1868,183.1039,197.6267,181.3539Zm72.3962-92.3353,6.8145,6,7.2686-8.2559-6.8138-5.9991,2.0806-2.3627a4.4852,4.4852,0,0,1,6.33-.4023l18.5247,16.31a4.4854,4.4854,0,0,1,.4023,6.33L287.158,120.4811,262.1941,97.9094Zm-15.76,17.8971,24.9639,22.5718L258.5056,153.02a4.4853,4.4853,0,0,1-6.33.4023l-18.5244-16.31a4.4852,4.4852,0,0,1-.4024-6.3306l5.2063-5.9124,7.2039,6.3426,7.2685-8.2559-7.2031-6.3418Z"/>
<path d="M205.363,187.6948c-6.3344,7.7241-16.3247,22.0183-19.0793,38.09-.2288,1.09-.5364,4.77-.5364,5.1638a25.0142,25.0142,0,1,0,50.0283,0c0-.3933-.3078-4.0735-.5366-5.1638-2.7544-16.0715-12.7446-30.3657-19.0791-38.09A6.9748,6.9748,0,0,0,205.363,187.6948Zm12.8313,52.7234c-2.1606,4.6074-8.8593,6.0224-14.9621,3.1606s-9.2986-8.9172-7.1377-13.5247,8.86-6.0224,14.9621-3.1606S220.3552,235.8105,218.1943,240.4182Z"/>
<path d="M362.6816,368.0358c-4.0678-.6875-8.3491-1.3244-12.7793-1.9211A9.2631,9.2631,0,0,0,351.12,361.66c0-8.9139-16.0652-16.6966-37.0407-20.8868l-.0081-.0046s-11.2466-8.04-35.833-8.04A87.2849,87.2849,0,0,0,263.21,333.968c-5.55-5.9585-13.2771-8.6326-19.9538-9.7769,5.63-10.0234,7.0517-22.8193,3.4541-32.8579-3.3545-9.36-10.4541-15.8467-20.5313-18.7573-16.9766-4.9034-26.1973,1.8769-30.8047,7.9082-6.2187-7.2242-15.2715-8.9927-25.2783-4.8086l-.3359.1528c-12.1446,5.9785-17.9746,17.502-16.65,32.6826-6.5489-2.1953-16.0254-3.042-28.1533,1.9312-12.6768,5.1982-20.792,16.3008-21.7071,29.6992a36.4782,36.4782,0,0,0,18.4141,34.1445c.0268.0157.0517.0323.0786.0479-14.4849,4.66-21.1978,10.31-21.1978,17.4795v.49a39.6426,39.6426,0,0,0,24.8575,36.74c13.1357,5.3706,36.5957,18.2535,46.1357,44.1939.418,1.1367,1.1406,3.4189,1.5156,4.624C176.0732,496.52,217.9512,505.0261,256,505.0261c37.5293,0,79.2383-8.3589,82.8809-26.7017.4629-1.4775,1.49-4.6758,2.0918-6.2031,10.3711-26.2837,35.3623-38.8814,45.6259-43.0777a39.6426,39.6426,0,0,0,24.8575-36.74v-.49C411.4561,381.07,396.4131,373.737,362.6816,368.0358Zm-69.0087-26.5293c5.8522,0,10.5966,2.1426,10.5966,4.7857s-4.7444,4.7854-10.5966,4.7854-10.5967-2.1424-10.5967-4.7854S287.82,341.5065,293.6729,341.5065ZM279.1812,361.66c16.4531,0,30.6206-3.334,37.08-8.1306,1.4576.3428,2.8889.7014,4.2744,1.0842,9.5076,2.6255,14.8,5.4771,17.2879,7.2893-2.2346,1.7215-6.9719,4.3924-15.5344,6.8245-11.5943,3.2934-26.4417,5.1072-41.8069,5.1072s-30.2129-1.8138-41.8069-5.1072c-8.5628-2.4321-13.3-5.103-15.5347-6.8245,2.4878-1.8122,7.78-4.6638,17.2879-7.2893.7632-.2109,1.5612-.4028,2.3476-.6013C249.52,358.5478,263.2864,361.66,279.1812,361.66Zm-35.3963,20.66c-9.5234,7.6733-22.1641,12.4382-31.9983,15.2317l-31.9614-.1673c-.3938-4.239-.6091-8.3755-.635-12.3738a17.1679,17.1679,0,0,1,5.9411-13.1438,35.6637,35.6637,0,0,1,24.88-8.6235C211.5405,371.33,224.6724,378.3344,243.7849,382.3193ZM115.2217,340.9587c.6045-8.8628,5.8125-15.939,14.2871-19.4141,8.4111-3.4487,15.8144-3.7046,21.999-.7641a9.8158,9.8158,0,0,0,13.917-10.3838c-1.8389-11.6573,1.3477-19.6372,9.4717-23.7212,5.7256-2.3438,9.4306-1.4556,12.3779,2.9536a9.83,9.83,0,0,0,16.6348-.3794c3.6308-6.0952,9.8222-7.78,18.9394-5.1455,6.3086,1.8227,10.5362,5.6172,12.5655,11.2778,2.6748,7.4644,1.0879,17.7149-3.86,24.9278a9.8223,9.8223,0,0,0,7.03,15.3422,34.0026,34.0026,0,0,1,10.2053,2.5862,29.0981,29.0981,0,0,0-5.9729,3.4036l-.0078.0056c-11.769,2.7007-21.635,6.5557-27.4211,11.0859-13.64-1.7285-24.0467,1.826-31.5,6.49a1.4749,1.4749,0,0,1-2.2219-1.5354c5.2131-27.5315,16.84-44.4966,17.0845-44.8372a5.4607,5.4607,0,0,0-8.92-6.3015c-.6838.9695-10.3911,14.9924-16.5542,38.3108a1.8657,1.8657,0,0,1-3.2041.7593,41.9623,41.9623,0,0,0-20.6592-12.8191,5.4562,5.4562,0,0,0-2.3459,10.657,31.5426,31.5426,0,0,1,20.54,18.6875,17.36,17.36,0,0,1,1.2324,8.125,154.23,154.23,0,0,0,.0215,27.0566l-8.9656-.0469q-1.7271-.2467-3.5066-.5144a80.9018,80.9018,0,0,0-9.4209-16.1728,63.7069,63.7069,0,0,0-19.2842-16.6875A24.5537,24.5537,0,0,1,115.2217,340.9587Zm284.2344,51.3447a27.6869,27.6869,0,0,1-17.3985,25.6328c-14.5195,5.9361-40.6133,20.2969-52.248,49.7827-.9375,2.3785-2.69,8.2183-2.69,8.2183-.3555,2.2139-5.8437,6.9375-19.5039,10.8774-13.8887,4.0054-32.22,6.2115-51.6162,6.2115-19.584,0-38.0391-2.2432-51.9648-6.316-15.2051-4.4467-18.9766-9.3291-19.1465-10.8349,0,0-1.4-4.9058-2.09-6.7793-11.1269-30.26-37.8925-45.0415-52.8564-51.16a27.6869,27.6869,0,0,1-17.3985-25.6328v-.104c.5855-.7664,4.229-4.5266,21.0972-8.7258a44.0478,44.0478,0,0,1,3.7241,4.3156,69.3122,69.3122,0,0,1,4.2036,6.3123,76.8959,76.8959,0,0,1-9.3178-2.61,6,6,0,1,0-4.1328,11.2656,119.58,119.58,0,0,0,19.3813,4.72l.0142.0435,3.6152.5737a399.89,399.89,0,0,0,45.5723,4.8164c18.1469,1.2063,38.2312,1.8819,58.7705,1.8819,51.8379,0,101.8926-4.2564,124.5527-10.5918a6,6,0,0,0-3.2305-11.5567,181.362,181.362,0,0,1-22.2954,4.2976A118.6969,118.6969,0,0,0,327.52,379.6894a79.6651,79.6651,0,0,0,8.63-3.1582c7.1272.7734,13.9019,1.6521,20.2224,2.6374,36.0821,5.6241,42.3,12.0059,43.0831,13.0308Z"/>
</g>
</svg>