<svg xmlns="http://www.w3.org/2000/svg" shape-rendering="geometricPrecision" text-rendering="geometricPrecision" image-rendering="optimizeQuality" fill-rule="evenodd" clip-rule="evenodd" viewBox="0 0 512 512"><path d="M307.235 165.878c13.34 7.596 25.258 18.05 35.165 30.678h18.874c5.881 0 9.389-.354 11.503-1.7 2.13-1.356 3.925-4.368 6.38-9.684l25.075-54.287a6.77 6.77 0 0112.294 5.67l-25.075 54.286c-3.554 7.696-6.614 12.351-11.415 15.408-4.816 3.066-10.319 3.873-18.762 3.873h-9.515c7.655 12.663 13.508 26.907 17.124 42.229h47.665a6.783 6.783 0 010 13.566h-45.099a159.427 159.427 0 011.612 22.669c0 6.501-.396 12.894-1.153 19.151h4.044c8.443 0 13.946.807 18.763 3.873 4.801 3.057 7.86 7.712 11.414 15.407l25.075 54.287a6.77 6.77 0 01-12.293 5.67l-25.076-54.287c-2.455-5.316-4.25-8.328-6.38-9.684-2.114-1.346-5.621-1.7-11.503-1.7h-6.289c-12.596 59.604-58.814 103.817-113.912 103.817-55.098 0-101.317-44.213-113.912-103.817h-5.791c-5.882 0-9.389.354-11.503 1.7-2.13 1.356-3.925 4.368-6.38 9.684L93.09 386.974a6.77 6.77 0 01-12.294-5.67l25.075-54.287c3.554-7.695 6.613-12.35 11.415-15.407 4.816-3.066 10.319-3.873 18.762-3.873h3.547a159.858 159.858 0 01.458-41.82h-44.6a6.783 6.783 0 010-13.566h47.166c3.616-15.322 9.47-29.567 17.125-42.229h-9.018c-8.442 0-13.946-.807-18.762-3.873-4.801-3.057-7.86-7.712-11.414-15.408l-25.075-54.286a6.77 6.77 0 1112.293-5.67l25.075 54.287c2.455 5.316 4.25 8.328 6.381 9.684 2.113 1.346 5.621 1.7 11.502 1.7h18.376c9.908-12.627 21.826-23.083 35.165-30.679.231-20.838 11.139-35.276 25.775-42.82-2.036-5.877-5.305-11.139-9.485-15.397-4.836-4.927-10.875-8.502-17.606-10.118a5.405 5.405 0 012.502-10.514c8.785 2.11 16.609 6.718 22.82 13.044 5.19 5.288 9.266 11.784 11.843 19.027a57.635 57.635 0 0115.791-2.158 57.571 57.571 0 0115.481 2.154c2.576-7.241 6.652-13.736 11.842-19.023 6.21-6.326 14.035-10.934 22.82-13.044a5.403 5.403 0 012.501 10.514c-6.731 1.616-12.769 5.191-17.605 10.118-4.18 4.258-7.449 9.518-9.484 15.395 14.634 7.546 25.542 21.986 25.773 42.823zm-57.244 247.447V210.122H172.63c-14.433 21.411-23.061 48.52-23.061 78.012 0 66.961 44.458 121.658 100.422 125.191zm-68.83-214.413h149.18c-19.175-22.353-45.516-36.155-74.59-36.155-29.074 0-55.416 13.801-74.59 36.155zm157.712 11.21h-77.362v203.203c55.964-3.533 100.422-58.23 100.422-125.191 0-29.492-8.628-56.602-23.06-78.012zm-124.416-48.374c24.186-10.695 53.233-11.34 82.589 0 0-47.417-82.589-47.416-82.589 0z"/><path fill-rule="nonzero" d="M256 0c70.69 0 134.691 28.655 181.019 74.981C483.346 121.309 512 185.309 512 256c0 70.692-28.654 134.691-74.981 181.019C390.691 483.346 326.692 512 256 512c-70.691 0-134.691-28.654-181.019-74.981C28.655 390.691 0 326.69 0 256c0-70.691 28.655-134.691 74.981-181.019C121.309 28.655 185.309 0 256 0zM92.603 79.552l338.631 341.143c40.46-43.031 65.251-100.967 65.251-164.695 0-66.409-26.917-126.531-70.436-170.049C382.531 42.433 322.409 15.515 256 15.515c-63.089 0-120.502 24.295-163.397 64.037zm327.68 352.071L81.596 90.423C40.645 133.544 15.515 191.836 15.515 256c0 66.409 26.918 126.531 70.436 170.049 43.518 43.519 103.64 70.436 170.049 70.436 63.525 0 121.294-24.632 164.283-64.862z"/></svg>