<?xml version="1.0" encoding="iso-8859-1"?>
<!-- Uploaded to: SVG Repo, www.svgrepo.com, Generator: SVG Repo Mixer Tools -->
<svg fill="#000000" height="800px" width="800px" version="1.1" id="Layer_1" xmlns="http://www.w3.org/2000/svg" xmlns:xlink="http://www.w3.org/1999/xlink" 
	 viewBox="0 0 512.004 512.004" xml:space="preserve">
<g>
	<g>
		<path d="M401.07,221.869c-61.167,0-110.933,49.766-110.933,110.933s49.766,110.933,110.933,110.933
			s110.933-49.766,110.933-110.933S462.237,221.869,401.07,221.869z M401.07,426.669c-51.755,0-93.867-42.112-93.867-93.867
			c0-51.755,42.112-93.867,93.867-93.867c51.755,0,93.867,42.112,93.867,93.867C494.937,384.557,452.825,426.669,401.07,426.669z"/>
	</g>
</g>
<g>
	<g>
		<circle cx="401.07" cy="332.802" r="51.2"/>
	</g>
</g>
<g>
	<g>
		<circle cx="93.87" cy="349.868" r="34.133"/>
	</g>
</g>
<g>
	<g>
		<path d="M507.473,196.268c-3.405-9.446-8.294-18.176-16.367-24.141c-8.482-6.281-18.961-9.992-30.302-9.992h-28.757
			c-2.031,0-3.789-1.434-4.181-3.43l-6.827-34.133c-0.538-2.637,1.485-5.103,4.181-5.103h1.451c4.71,0,8.533-3.823,8.533-8.533
			V76.802c0-4.71-3.823-8.533-8.533-8.533h-179.2c-23.646,0-42.871,19.345-42.667,43.042c0.043,4.557,3.977,8.158,8.533,8.158
			h16.213l-7.322,76.868c-0.128,0-0.23-0.068-0.358-0.068h-93.867c-16.828,0-31.531,8.747-42.138,21.461
			c-5.538,6.639-9.515,14.447-12.254,22.639c-2.671,7.97-4.864,16.222-5.094,19.2c-40.457,11.392-69.965,49.169-68.463,93.542
			c1.596,46.933,39.236,86.519,86.05,90.308c49.323,3.985,91.494-30.421,100.002-76.484h80.828c2.543,0,4.949-1.135,6.571-3.089
			c1.621-1.954,2.287-4.531,1.809-7.031c-1.493-7.868-2.244-15.949-2.244-24.013c0-70.579,57.421-128,128-128
			c36.702,0,71.689,15.795,96,43.332c2.338,2.654,6.101,3.567,9.412,2.33c3.32-1.246,5.513-4.429,5.521-7.979v-29.15
			C512.004,210.425,507.473,196.268,507.473,196.268z M169.587,362.882c-5.239,31.795-30.882,57.446-62.677,62.703
			c-52.48,8.687-97.434-36.25-88.764-88.73c5.248-31.795,30.891-57.446,62.677-62.703
			C133.303,265.465,178.256,310.402,169.587,362.882z M410.781,188.119c-3.217-0.239-6.451-0.384-9.711-0.384
			c-61.005,0-113.186,37.922-134.588,91.375c-0.64,1.604-2.142,2.662-3.866,2.645c-5.888-0.043-19.516-0.102-26.718-0.137
			c-2.509-0.009-4.446-2.176-4.207-4.668l14.635-153.617c0.213-2.193,2.048-3.866,4.25-3.866h148.531
			c2.031,0,3.789,1.434,4.181,3.43l12.032,60.169C415.876,185.858,413.614,188.333,410.781,188.119z"/>
	</g>
</g>
</svg>